<svg xmlns="http://www.w3.org/2000/svg" viewBox="0 0 156 31" role="img" aria-labelledby="servier-logo-title">
  <title id="servier-logo-title">SERVIER</title>
  <g fill="none" fill-rule="evenodd">
    <path fill="#EA5C47" d="m148.286 0 1.555 3.526 3.48-1.711-1.098 3.69 3.777.904-3.237 2.129 2.307 3.097-3.862-.43-.243 3.84-2.679-2.786-2.679 2.786-.244-3.84-3.861.43 2.306-3.097-3.236-2.129 3.776-.904-1.097-3.69 3.48 1.711z"/>
    <path fill="currentColor" d="M55.362 11.053c-.22 1.545-1.506 2.466-3.443 2.466h-4.443l.714-5.025h4.378c1.692 0 3.064.656 2.794 2.559m5.373-.433c.55-3.876-1.664-6.622-7.206-6.622h-9.984L40.766 23.57h5.284l.853-6.008h3.255l3.183 6.008h6.105l-3.762-6.849c2.909-1.156 4.631-3.147 5.051-6.101m7.34-6.622 2.828 12.815 6.463-12.815h5.788L72.338 23.57h-4.97L62.146 3.998h5.93Zm22.51 0L87.806 23.57h-5.313l2.778-19.572h5.312ZM11.28 7.65c1.915 0 3.617.617 5.273 1.755l3.153-3.465c-1.866-1.475-4.71-2.51-7.816-2.51-5.691 0-8.735 2.816-9.206 6.11-.44 3.077.862 4.732 6.457 6.134 3.267.82 4.197 1.252 4.027 2.37-.147.983-1.245 1.733-3.61 1.733-2.513 0-4.234-.634-6.194-2.19L0 20.808c2.228 1.987 5.21 3.192 8.991 3.192 7.428 0 9.504-4.14 9.781-6.081.574-4.01-1.503-5.145-6.81-6.41-3.75-.895-4.05-1.368-3.912-2.278.165-1.094 1.223-1.58 3.23-1.58m115.012 3.4c-.22 1.546-1.506 2.467-3.443 2.467h-4.443l.713-5.025h4.379c1.692 0 3.064.656 2.794 2.559Zm19.41 7.746c-1.107 4.554-5.157 7.53-9.607 7.53-2.911 0-4.998-1.446-6.237-3.703l-3.244-5.904c2.883-1.146 4.629-3.124 5.052-6.101.549-3.876-1.664-6.622-7.206-6.622h-9.985l-2.778 19.572h5.282l.854-6.008h3.256l3.219 6.078c2.986 5.638 6.974 7.36 11.787 7.36 7.205 0 13.543-4.777 14.772-12.202h-5.164ZM21.07 23.57h15.829l.611-4.283H26.723l.524-3.667h9.654l.546-3.815h-9.654l.505-3.524h10.645l.612-4.283H23.87l-2.8 19.572Zm71.06 0h15.83l.613-4.283H97.784l.524-3.667h9.654l.546-3.815h-9.653l.504-3.524h10.645l.612-4.283H94.93l-2.8 19.572Z"/>
  </g>
</svg>
